0
SECTION
2
HEADER
9
$INSUNITS
70
4
9
$ACADVER
1
AC1014
9
$HANDSEED
5
FFFF
0
ENDSEC
0
SECTION
2
TABLES
0
TABLE
2
VPORT
5
8
100
AcDbSymbolTable
0
ENDTAB
0
TABLE
2
LTYPE
5
5
100
AcDbSymbolTable
0
LTYPE
5
14
100
AcDbSymbolTableRecord
100
AcDbLinetypeTableRecord
2
BYBLOCK
70
0
0
LTYPE
5
15
100
AcDbSymbolTableRecord
100
AcDbLinetypeTableRecord
2
BYLAYER
70
0
0
LTYPE
5
16
100
AcDbSymbolTableRecord
100
AcDbLinetypeTableRecord
2
DASHED
70
0
3
Dashed __ __ __ __ __ __ __ __ __ __ __ __ __ _
72
65
73
2
40
0.75
49
0.5
74
0
49
-0.25
74
0
0
ENDTAB
0
TABLE
2
LAYER
5
2
100
AcDbSymbolTable
70
2
0
LAYER
5
50
100
AcDbSymbolTableRecord
100
AcDbLayerTableRecord
2
0
70
0
62
7
6
CONTINUOUS
0
ENDTAB
0
TABLE
2
STYLE
5
3
100
AcDbSymbolTable
70
1
0
STYLE
5
11
100
AcDbSymbolTableRecord
100
AcDbTextStyleTableRecord
2
STANDARD
70
0
0
ENDTAB
0
TABLE
2
VIEW
5
6
100
AcDbSymbolTable
70
0
0
ENDTAB
0
TABLE
2
UCS
5
7
100
AcDbSymbolTable
70
0
0
ENDTAB
0
TABLE
2
APPID
5
9
100
AcDbSymbolTable
70
2
0
APPID
5
12
100
AcDbSymbolTableRecord
100
AcDbRegAppTableRecord
2
ACAD
70
0
0
ENDTAB
0
TABLE
2
DIMSTYLE
5
A
100
AcDbSymbolTable
70
1
0
ENDTAB
0
TABLE
2
BLOCK_RECORD
5
1
100
AcDbSymbolTable
70
1
0
BLOCK_RECORD
5
1F
100
AcDbSymbolTableRecord
100
AcDbBlockTableRecord
2
*MODEL_SPACE
0
BLOCK_RECORD
5
1B
100
AcDbSymbolTableRecord
100
AcDbBlockTableRecord
2
*PAPER_SPACE
0
ENDTAB
0
ENDSEC
0
SECTION
2
BLOCKS
0
BLOCK
5
20
100
AcDbEntity
100
AcDbBlockBegin
2
*MODEL_SPACE
0
ENDBLK
5
21
100
AcDbEntity
100
AcDbBlockEnd
0
BLOCK
5
1C
100
AcDbEntity
100
AcDbBlockBegin
2
*PAPER_SPACE
0
ENDBLK
5
1D
100
AcDbEntity
100
AcDbBlockEnd
0
ENDSEC
0
SECTION
2
ENTITIES
0
LWPOLYLINE
5
100
100
AcDbEntity
8
0
100
AcDbPolyline
90
94
70
1
43
0.0
10
171.00000254809856
20
61.000000908970833
42
0.29249171923564604
10
173.06179384607685
20
57.776999999999994
10
177.423
20
57.777000000000001
10
177.52102000000002
20
57.780252000000004
10
177.86567299999996
20
57.812406000000003
10
178.27050700000001
20
57.881493000000006
10
178.67824300000001
20
57.984834999999997
10
179.06824899999998
20
58.119121000000007
10
179.43198099999995
20
58.281503999999998
10
179.76601799999997
20
58.469807000000003
10
180.06933699999996
20
58.682569000000001
10
180.34201599999994
20
58.919037000000003
10
180.58453199999997
20
59.179151000000005
10
180.79733400000003
20
59.463501000000001
10
180.98058299999997
20
59.773268000000002
10
181.133983
20
60.110159000000003
10
181.19903299999999
20
60.288795000000007
10
181.25668099999999
20
60.476325000000003
10
181.30599099999998
20
60.670743000000009
10
181.34722199999999
20
60.874279999999999
10
181.37978599999997
20
61.085844999999999
10
181.40354400000001
20
61.306830000000005
10
181.41806799999998
20
61.537016999999999
10
181.423
20
61.777000000000008
10
181.423
20
124.777
10
181.419748
20
124.87502000000001
10
181.38759399999998
20
125.219673
10
181.31850700000001
20
125.62450699999999
10
181.21516499999998
20
126.03224300000001
10
181.08087900000001
20
126.42224900000001
10
180.91849599999995
20
126.78598100000002
10
180.73019299999999
20
127.12001800000002
10
180.51743099999996
20
127.42333700000002
10
180.28096300000001
20
127.69601600000001
10
180.020849
20
127.93853200000001
10
179.73649899999998
20
128.15133400000002
10
179.42673199999996
20
128.33458300000001
10
179.08984099999998
20
128.48798300000001
10
178.911205
20
128.553033
10
178.72367499999996
20
128.610681
10
178.529257
20
128.65999099999999
10
178.32571999999999
20
128.701222
10
178.11415500000004
20
128.73378600000001
10
177.89316999999997
20
128.757544
10
177.66298299999994
20
128.77206799999999
10
177.423
20
128.77699999999999
10
87.923000000000002
20
128.77699999999999
10
87.824980000000011
20
128.77374800000001
10
87.480327000000017
20
128.74159399999999
10
87.075492999999994
20
128.672507
10
86.667757000000009
20
128.569165
10
86.277750999999995
20
128.434879
10
85.914018999999996
20
128.27249599999999
10
85.579982000000001
20
128.084193
10
85.276662999999999
20
127.87143100000002
10
85.003984000000003
20
127.634963
10
84.761468000000008
20
127.374849
10
84.548666000000011
20
127.09049899999999
10
84.365416999999994
20
126.780732
10
84.212017000000003
20
126.44384100000002
10
84.146967000000004
20
126.26520499999999
10
84.089319000000003
20
126.07767500000001
10
84.040008999999998
20
125.883257
10
83.998778000000001
20
125.67972
10
83.966213999999994
20
125.46815500000001
10
83.942456000000021
20
125.24717000000001
10
83.927931999999998
20
125.01698300000001
10
83.923000000000002
20
124.777
10
83.923000000000002
20
61.777000000000008
10
83.926252000000005
20
61.67898000000001
10
83.958405999999997
20
61.334327000000002
10
84.027493000000021
20
60.929493000000008
10
84.130835000000005
20
60.521757000000001
10
84.265120999999994
20
60.131751000000008
10
84.427503999999999
20
59.76801900000001
10
84.615807000000004
20
59.433982000000007
10
84.828569000000002
20
59.130663000000006
10
85.065037000000018
20
58.857984000000002
10
85.325151000000005
20
58.615468
10
85.609500999999995
20
58.402666000000004
10
85.919268000000017
20
58.219417
10
86.256158999999997
20
58.066017000000009
10
86.434794999999994
20
58.00096700000001
10
86.622325000000004
20
57.943319000000002
10
86.816743000000002
20
57.894009000000004
10
87.02028
20
57.852778000000001
10
87.231845000000007
20
57.820214000000007
10
87.452830000000006
20
57.796456000000006
10
87.683017000000007
20
57.781932000000005
10
87.923000000000002
20
57.777000000000001
10
154.93821104150402
20
57.777000000000001
42
0.29249171923564588
10
157.00000233948231
20
61.000000908970833
10
157.00000233948231
20
80.000001192092896
10
171.00000254809856
20
80.000001192092896
0
CIRCLE
5
101
100
AcDbEntity
8
0
100
AcDbCircle
10
87.923000000000002
20
124.777
30
0
40
1.1000000000000001
210
0
220
0
230
1
0
CIRCLE
5
102
100
AcDbEntity
8
0
100
AcDbCircle
10
177.423
20
124.777
30
0
40
1.1000000000000001
210
0
220
0
230
1
0
CIRCLE
5
103
100
AcDbEntity
8
0
100
AcDbCircle
10
87.923000000000002
20
61.777000000000008
30
0
40
1.1000000000000001
210
0
220
0
230
1
0
CIRCLE
5
104
100
AcDbEntity
8
0
100
AcDbCircle
10
177.423
20
61.777000000000008
30
0
40
1.1000000000000001
210
0
220
0
230
1
0
ENDSEC
0
SECTION
2
OBJECTS
0
DICTIONARY
5
C
100
AcDbDictionary
3
ACAD_GROUP
350
D
3
ACAD_MLINESTYLE
350
17
0
DICTIONARY
5
D
100
AcDbDictionary
0
DICTIONARY
5
1A
330
C
100
AcDbDictionary
0
DICTIONARY
5
17
100
AcDbDictionary
0
ENDSEC
0
EOF
