%TF.GenerationSoftware,KiCad,Pcbnew,9.0.0*%
%TF.CreationDate,2025-06-24T12:34:56+10:00*%
%TF.ProjectId,MeowPad,4d656f77-5061-4642-9e6b-696361645f70,rev?*%
%TF.SameCoordinates,Original*%
%TF.FileFunction,Soldermask,Bot*%
%TF.FilePolarity,Negative*%
%FSLAX46Y46*%
G04 Gerber Fmt 4.6, Leading zero omitted, Abs format (unit mm)*
G04 Created by KiCad (PCBNEW 9.0.0) date 2025-06-24 12:34:56*
%MOMM*%
%LPD*%
G01*
G04 APERTURE LIST*
G04 Aperture macros list*
%AMRoundRect*
0 Rectangle with rounded corners*
0 $1 Rounding radius*
0 $2 $3 $4 $5 $6 $7 $8 $9 X,Y pos of 4 corners*
0 Add a 4 corners polygon primitive as box body*
4,1,4,$2,$3,$4,$5,$6,$7,$8,$9,$2,$3,0*
0 Add four circle primitives for the rounded corners*
1,1,$1+$1,$2,$3*
1,1,$1+$1,$4,$5*
1,1,$1+$1,$6,$7*
1,1,$1+$1,$8,$9*
0 Add four rect primitives between the rounded corners*
20,1,$1+$1,$2,$3,$4,$5,0*
20,1,$1+$1,$4,$5,$6,$7,0*
20,1,$1+$1,$6,$7,$8,$9,0*
20,1,$1+$1,$8,$9,$2,$3,0*%
G04 Aperture macros list end*
%ADD10C,1.600000*%
%ADD11O,1.600000X1.600000*%
%ADD12C,1.700000*%
%ADD13C,3.000000*%
%ADD14C,4.000000*%
%ADD15R,2.550000X2.500000*%
%ADD16C,2.200000*%
%ADD17R,1.400000X1.400000*%
%ADD18RoundRect,0.500000X0.875000X0.500000X-0.875000X0.500000X-0.875000X-0.500000X0.875000X-0.500000X0*%
%ADD19R,1.500000X0.900000*%
G04 APERTURE END LIST*
D10*
%TO.C,R1*%
X88124835Y-73166725D03*
D11*
X88124835Y-83326725D03*
%TD*%
D12*
%TO.C,S2*%
X99203000Y-73637000D03*
D13*
X100493000Y-71097000D03*
D14*
X104303000Y-73637000D03*
D13*
X106843000Y-68557000D03*
D12*
X109363000Y-73637000D03*
D15*
X96893000Y-71097000D03*
X110318000Y-68557000D03*
%TD*%
D12*
%TO.C,S12*%
X138453000Y-112867000D03*
D13*
X139743000Y-110327000D03*
D14*
X143553000Y-112867000D03*
D13*
X146093000Y-107787000D03*
D12*
X148613000Y-112867000D03*
D15*
X136143000Y-110327000D03*
X149568000Y-107787000D03*
%TD*%
D16*
%TO.C,REF\u002A\u002A*%
X177423000Y-61777000D03*
%TD*%
D12*
%TO.C,S7*%
X118843000Y-93227000D03*
D13*
X120133000Y-90687000D03*
D14*
X123943000Y-93227000D03*
D13*
X126483000Y-88147000D03*
D12*
X129003000Y-93227000D03*
D15*
X116533000Y-90687000D03*
X129958000Y-88147000D03*
%TD*%
D12*
%TO.C,S8*%
X138443000Y-93227000D03*
D13*
X139733000Y-90687000D03*
D14*
X143543000Y-93227000D03*
D13*
X146083000Y-88147000D03*
D12*
X148603000Y-93227000D03*
D15*
X136133000Y-90687000D03*
X149558000Y-88147000D03*
%TD*%
D12*
%TO.C,S3*%
X118843000Y-73637000D03*
D13*
X120133000Y-71097000D03*
D14*
X123943000Y-73637000D03*
D13*
X126483000Y-68557000D03*
D12*
X129003000Y-73637000D03*
D15*
X116533000Y-71097000D03*
X129958000Y-68557000D03*
%TD*%
D16*
%TO.C,REF\u002A\u002A*%
X87923000Y-61777000D03*
%TD*%
D12*
%TO.C,S6*%
X99213000Y-93217000D03*
D13*
X100503000Y-90677000D03*
D14*
X104313000Y-93217000D03*
D13*
X106853000Y-88137000D03*
D12*
X109373000Y-93217000D03*
D15*
X96903000Y-90677000D03*
X110328000Y-88137000D03*
%TD*%
D16*
%TO.C,REF\u002A\u002A*%
X177423000Y-124777000D03*
%TD*%
%TO.C,REF\u002A\u002A*%
X87923000Y-124777000D03*
%TD*%
D12*
%TO.C,S10*%
X99188000Y-112837000D03*
D13*
X100478000Y-110297000D03*
D14*
X104288000Y-112837000D03*
D13*
X106828000Y-107757000D03*
D12*
X109348000Y-112837000D03*
D15*
X96878000Y-110297000D03*
X110303000Y-107757000D03*
%TD*%
D12*
%TO.C,S11*%
X118813000Y-112857000D03*
D13*
X120103000Y-110317000D03*
D14*
X123913000Y-112857000D03*
D13*
X126453000Y-107777000D03*
D12*
X128973000Y-112857000D03*
D15*
X116503000Y-110317000D03*
X129928000Y-107777000D03*
%TD*%
D12*
%TO.C,S4*%
X138453000Y-73577000D03*
D13*
X139743000Y-71037000D03*
D14*
X143553000Y-73577000D03*
D13*
X146093000Y-68497000D03*
D12*
X148613000Y-73577000D03*
D15*
X136143000Y-71037000D03*
X149568000Y-68497000D03*
%TD*%
D17*
%TO.C,D3*%
X131423000Y-70927000D03*
X131423000Y-74627000D03*
%TD*%
D18*
%TO.C,M1*%
X172505500Y-61062000D03*
X172505500Y-63602000D03*
X172505500Y-66142000D03*
X172505500Y-68682000D03*
X172505500Y-71222000D03*
X172505500Y-73762000D03*
X172505500Y-76302000D03*
X156340500Y-76302000D03*
X156340500Y-73762000D03*
X156340500Y-71222000D03*
X156340500Y-68682000D03*
X156340500Y-66142000D03*
X156340500Y-63602000D03*
X156340500Y-61062000D03*
%TD*%
D17*
%TO.C,D12*%
X150923000Y-110427000D03*
X150923000Y-114127000D03*
%TD*%
D19*
%TO.C,LED6*%
X116573000Y-101127000D03*
X116573000Y-104427000D03*
X111673000Y-104427000D03*
X111673000Y-101127000D03*
%TD*%
D17*
%TO.C,D2*%
X111923000Y-70927000D03*
X111923000Y-74627000D03*
%TD*%
%TO.C,D10*%
X111923000Y-110427000D03*
X111923000Y-114127000D03*
%TD*%
D19*
%TO.C,LED1*%
X155773000Y-81427000D03*
X155773000Y-84727000D03*
X150873000Y-84727000D03*
X150873000Y-81427000D03*
%TD*%
D17*
%TO.C,D4*%
X150923000Y-70927000D03*
X150923000Y-74627000D03*
%TD*%
%TO.C,D7*%
X131423000Y-90427000D03*
X131423000Y-94127000D03*
%TD*%
D19*
%TO.C,LED3*%
X116573000Y-81527000D03*
X116573000Y-84827000D03*
X111673000Y-84827000D03*
X111673000Y-81527000D03*
%TD*%
%TO.C,LED7*%
X136173000Y-101127000D03*
X136173000Y-104427000D03*
X131273000Y-104427000D03*
X131273000Y-101127000D03*
%TD*%
D17*
%TO.C,D11*%
X131423000Y-110277000D03*
X131423000Y-113977000D03*
%TD*%
D19*
%TO.C,LED8*%
X155873000Y-101127000D03*
X155873000Y-104427000D03*
X150973000Y-104427000D03*
X150973000Y-101127000D03*
%TD*%
%TO.C,LED2*%
X136273000Y-81477000D03*
X136273000Y-84777000D03*
X131373000Y-84777000D03*
X131373000Y-81477000D03*
%TD*%
D17*
%TO.C,D8*%
X150923000Y-90427000D03*
X150923000Y-94127000D03*
%TD*%
%TO.C,D6*%
X111923000Y-90427000D03*
X111923000Y-94127000D03*
%TD*%
M02*
