M48
; DRILL file {KiCad 9.0.0} date 2025-06-24T12:34:59+1000
; FORMAT={-:-/ absolute / inch / decimal}
; #@! TF.CreationDate,2025-06-24T12:34:59+10:00
; #@! TF.GenerationSoftware,Kicad,Pcbnew,9.0.0
; #@! TF.FileFunction,Plated,1,2,PTH
FMAT,2
INCH
; #@! TA.AperFunction,Plated,PTH,ViaDrill
T1C0.0118
; #@! TA.AperFunction,Plated,PTH,ComponentDrill
T2C0.0315
%
G90
G05
T1
X3.8946Y-2.6881
X3.8946Y-3.4558
X3.8946Y-4.2235
X4.6623Y-2.6881
X4.6623Y-3.4558
X4.6623Y-4.2235
X5.43Y-2.6881
X5.43Y-3.4558
X5.43Y-4.2235
X6.0993Y-3.7117
X6.0993Y-3.4755
X6.1387Y-3.1605
X6.1426Y-3.7904
X6.3434Y-2.5896
X6.7096Y-2.4125
X6.7096Y-2.5109
X6.7096Y-2.6093
X6.7096Y-2.7078
T2
X3.4695Y-2.8806
X3.4695Y-3.2806
M30
