%TF.GenerationSoftware,KiCad,Pcbnew,9.0.0*%
%TF.CreationDate,2025-06-24T12:34:56+10:00*%
%TF.ProjectId,MeowPad,4d656f77-5061-4642-9e6b-696361645f70,rev?*%
%TF.SameCoordinates,Original*%
%TF.FileFunction,Profile,NP*%
%FSLAX46Y46*%
G04 Gerber Fmt 4.6, Leading zero omitted, Abs format (unit mm)*
G04 Created by KiCad (PCBNEW 9.0.0) date 2025-06-24 12:34:56*
%MOMM*%
%LPD*%
G01*
G04 APERTURE LIST*
%TA.AperFunction,Profile*%
%ADD10C,0.050000*%
%TD*%
%ADD11C,0.050000*%
G04 APERTURE END LIST*
D10*
X83923000Y-124777000D02*
X83923000Y-61777000D01*
X181423000Y-124777000D02*
X181423000Y-61777000D01*
D11*
X83923000Y-124777000D02*
X83923010Y-124787944D01*
X83923040Y-124798869D01*
X83923090Y-124809773D01*
X83923160Y-124820658D01*
X83923249Y-124831523D01*
X83923359Y-124842368D01*
X83923488Y-124853193D01*
X83923637Y-124863998D01*
X83923806Y-124874784D01*
X83923994Y-124885550D01*
X83924202Y-124896296D01*
X83924430Y-124907023D01*
X83924677Y-124917730D01*
X83924943Y-124928417D01*
X83925230Y-124939085D01*
X83925535Y-124949734D01*
X83925860Y-124960363D01*
X83926205Y-124970973D01*
X83926569Y-124981563D01*
X83926952Y-124992134D01*
X83927355Y-125002686D01*
X83927776Y-125013218D01*
X83928217Y-125023732D01*
X83928678Y-125034225D01*
X83929157Y-125044700D01*
X83929655Y-125055156D01*
X83930173Y-125065593D01*
X83930709Y-125076010D01*
X83931265Y-125086409D01*
X83931840Y-125096789D01*
X83932433Y-125107150D01*
X83933046Y-125117491D01*
X83933677Y-125127814D01*
X83934328Y-125138118D01*
X83934997Y-125148404D01*
X83935685Y-125158670D01*
X83936391Y-125168918D01*
X83937117Y-125179147D01*
X83937861Y-125189358D01*
X83938624Y-125199549D01*
X83939405Y-125209723D01*
X83940205Y-125219877D01*
X83941024Y-125230014D01*
X83941861Y-125240131D01*
X83942717Y-125250231D01*
X83943591Y-125260312D01*
X83944484Y-125270374D01*
X83945395Y-125280418D01*
X83946325Y-125290444D01*
X83947273Y-125300452D01*
X83948239Y-125310441D01*
X83949223Y-125320412D01*
X83950226Y-125330365D01*
X83951247Y-125340300D01*
X83952287Y-125350217D01*
X83953344Y-125360115D01*
X83954420Y-125369996D01*
X83955514Y-125379858D01*
X83956626Y-125389704D01*
X83957756Y-125399530D01*
X83958904Y-125409339D01*
X83960070Y-125419129D01*
X83961254Y-125428903D01*
X83962456Y-125438658D01*
X83963676Y-125448396D01*
X83964914Y-125458115D01*
X83966170Y-125467818D01*
X83967443Y-125477502D01*
X83968735Y-125487170D01*
X83970044Y-125496818D01*
X83971371Y-125506451D01*
X83972716Y-125516064D01*
X83974079Y-125525662D01*
X83975459Y-125535240D01*
X83976857Y-125544803D01*
X83978272Y-125554346D01*
X83979706Y-125563874D01*
X83981156Y-125573383D01*
X83982625Y-125582877D01*
X83984111Y-125592351D01*
X83985614Y-125601810D01*
X83987135Y-125611250D01*
X83988674Y-125620674D01*
X83990229Y-125630080D01*
X83991803Y-125639470D01*
X83993393Y-125648842D01*
X83995002Y-125658198D01*
X83996627Y-125667535D01*
X83998270Y-125676858D01*
X83999930Y-125686161D01*
X84001607Y-125695450D01*
X84003301Y-125704719D01*
X84005013Y-125713974D01*
X84006742Y-125723210D01*
X84008489Y-125732432D01*
X84010252Y-125741634D01*
X84012033Y-125750822D01*
X84013830Y-125759991D01*
X84015645Y-125769146D01*
X84017476Y-125778282D01*
X84019325Y-125787403D01*
X84021191Y-125796506D01*
X84023074Y-125805594D01*
X84024974Y-125814664D01*
X84026891Y-125823719D01*
X84028825Y-125832756D01*
X84030775Y-125841779D01*
X84032743Y-125850783D01*
X84034728Y-125859773D01*
X84036729Y-125868745D01*
X84038747Y-125877702D01*
X84040782Y-125886641D01*
X84042834Y-125895566D01*
X84044902Y-125904473D01*
X84046988Y-125913366D01*
X84049090Y-125922240D01*
X84051209Y-125931101D01*
X84053344Y-125939943D01*
X84055497Y-125948771D01*
X84057665Y-125957582D01*
X84059851Y-125966378D01*
X84062053Y-125975156D01*
X84064272Y-125983921D01*
X84066507Y-125992668D01*
X84068759Y-126001401D01*
X84071027Y-126010116D01*
X84073313Y-126018818D01*
X84075614Y-126027501D01*
X84077932Y-126036171D01*
X84080266Y-126044823D01*
X84082618Y-126053462D01*
X84084985Y-126062083D01*
X84087369Y-126070690D01*
X84089769Y-126079280D01*
X84092186Y-126087857D01*
X84094619Y-126096415D01*
X84097069Y-126104961D01*
X84099534Y-126113488D01*
X84102016Y-126122003D01*
X84104515Y-126130500D01*
X84107030Y-126138984D01*
X84109560Y-126147450D01*
X84112108Y-126155903D01*
X84114671Y-126164339D01*
X84117252Y-126172762D01*
X84119847Y-126181167D01*
X84122460Y-126189559D01*
X84125088Y-126197934D01*
X84127733Y-126206296D01*
X84130393Y-126214641D01*
X84135764Y-126231287D01*
X84141198Y-126247873D01*
X84146697Y-126264400D01*
X84152261Y-126280867D01*
X84157889Y-126297274D01*
X84163580Y-126313623D01*
X84169336Y-126329912D01*
X84175156Y-126346143D01*
X84181040Y-126362315D01*
X84186987Y-126378429D01*
X84192998Y-126394485D01*
X84199073Y-126410483D01*
X84205211Y-126426423D01*
X84211412Y-126442305D01*
X84217677Y-126458131D01*
X84224006Y-126473899D01*
X84230397Y-126489611D01*
X84236852Y-126505266D01*
X84243370Y-126520864D01*
X84249951Y-126536406D01*
X84256594Y-126551892D01*
X84263301Y-126567323D01*
X84270071Y-126582697D01*
X84276903Y-126598016D01*
X84283798Y-126613280D01*
X84290756Y-126628489D01*
X84297777Y-126643643D01*
X84304860Y-126658742D01*
X84312006Y-126673786D01*
X84319214Y-126688776D01*
X84326485Y-126703712D01*
X84333819Y-126718594D01*
X84341215Y-126733422D01*
X84348674Y-126748196D01*
X84356194Y-126762917D01*
X84363778Y-126777585D01*
X84371424Y-126792199D01*
X84379132Y-126806761D01*
X84386902Y-126821269D01*
X84394735Y-126835725D01*
X84402631Y-126850129D01*
X84410588Y-126864480D01*
X84418608Y-126878779D01*
X84426691Y-126893025D01*
X84434836Y-126907220D01*
X84443043Y-126921363D01*
X84451312Y-126935455D01*
X84459644Y-126949495D01*
X84468039Y-126963484D01*
X84476496Y-126977422D01*
X84485015Y-126991308D01*
X84493597Y-127005144D01*
X84502241Y-127018929D01*
X84510947Y-127032664D01*
X84519717Y-127046348D01*
X84528549Y-127059981D01*
X84537443Y-127073565D01*
X84546400Y-127087098D01*
X84555420Y-127100581D01*
X84564502Y-127114014D01*
X84573648Y-127127398D01*
X84582856Y-127140732D01*
X84592126Y-127154017D01*
X84601460Y-127167252D01*
X84610857Y-127180437D01*
X84620317Y-127193574D01*
X84629839Y-127206662D01*
X84639425Y-127219700D01*
X84649074Y-127232690D01*
X84658786Y-127245630D01*
X84668562Y-127258522D01*
X84678401Y-127271366D01*
X84688303Y-127284161D01*
X84698269Y-127296907D01*
X84708298Y-127309605D01*
X84718391Y-127322255D01*
X84728547Y-127334857D01*
X84738768Y-127347410D01*
X84749052Y-127359916D01*
X84759400Y-127372373D01*
X84769812Y-127384783D01*
X84780288Y-127397145D01*
X84790829Y-127409459D01*
X84801433Y-127421725D01*
X84812102Y-127433943D01*
X84822835Y-127446114D01*
X84833633Y-127458238D01*
X84844496Y-127470313D01*
X84855423Y-127482342D01*
X84866415Y-127494323D01*
X84877472Y-127506256D01*
X84888593Y-127518142D01*
X84899780Y-127529981D01*
X84911032Y-127541773D01*
X84922350Y-127553517D01*
X84933732Y-127565214D01*
X84945180Y-127576864D01*
X84956694Y-127588467D01*
X84968274Y-127600023D01*
X84979919Y-127611531D01*
X84991630Y-127622993D01*
X85003407Y-127634407D01*
X85015250Y-127645774D01*
X85027159Y-127657094D01*
X85039135Y-127668367D01*
X85051177Y-127679593D01*
X85063286Y-127690771D01*
X85075461Y-127701903D01*
X85087703Y-127712987D01*
X85100012Y-127724025D01*
X85112388Y-127735015D01*
X85124831Y-127745958D01*
X85137342Y-127756853D01*
X85149919Y-127767702D01*
X85162564Y-127778503D01*
X85175277Y-127789257D01*
X85188057Y-127799964D01*
X85200905Y-127810623D01*
X85213820Y-127821235D01*
X85226804Y-127831799D01*
X85239856Y-127842316D01*
X85252976Y-127852786D01*
X85266165Y-127863207D01*
X85279421Y-127873581D01*
X85292747Y-127883908D01*
X85306141Y-127894186D01*
X85319603Y-127904417D01*
X85333135Y-127914600D01*
X85346736Y-127924735D01*
X85360405Y-127934822D01*
X85374144Y-127944860D01*
X85387952Y-127954851D01*
X85401829Y-127964793D01*
X85415776Y-127974686D01*
X85429793Y-127984531D01*
X85443879Y-127994328D01*
X85458035Y-128004076D01*
X85472260Y-128013775D01*
X85486556Y-128023425D01*
X85500921Y-128033026D01*
X85515357Y-128042578D01*
X85529863Y-128052081D01*
X85544439Y-128061535D01*
X85559086Y-128070938D01*
X85573803Y-128080293D01*
X85588590Y-128089597D01*
X85603448Y-128098852D01*
X85618376Y-128108057D01*
X85633376Y-128117211D01*
X85648446Y-128126316D01*
X85663586Y-128135369D01*
X85678798Y-128144373D01*
X85694081Y-128153325D01*
X85709434Y-128162227D01*
X85724858Y-128171077D01*
X85740354Y-128179877D01*
X85755920Y-128188625D01*
X85771558Y-128197321D01*
X85787266Y-128205965D01*
X85803046Y-128214558D01*
X85818897Y-128223099D01*
X85834818Y-128231587D01*
X85850811Y-128240023D01*
X85866875Y-128248406D01*
X85883010Y-128256736D01*
X85899216Y-128265013D01*
X85915493Y-128273237D01*
X85931841Y-128281408D01*
X85948260Y-128289524D01*
X85964750Y-128297587D01*
X85981310Y-128305596D01*
X85997941Y-128313550D01*
X86014643Y-128321450D01*
X86031416Y-128329294D01*
X86048258Y-128337084D01*
X86065172Y-128344819D01*
X86082155Y-128352498D01*
X86099209Y-128360121D01*
X86116332Y-128367688D01*
X86133525Y-128375199D01*
X86150788Y-128382653D01*
X86168120Y-128390050D01*
X86185522Y-128397391D01*
X86202992Y-128404674D01*
X86220532Y-128411899D01*
X86238140Y-128419066D01*
X86255816Y-128426176D01*
X86273561Y-128433226D01*
X86291373Y-128440218D01*
X86309253Y-128447151D01*
X86327199Y-128454025D01*
X86345213Y-128460839D01*
X86363294Y-128467592D01*
X86381440Y-128474286D01*
X86399652Y-128480919D01*
X86417930Y-128487491D01*
X86436272Y-128494001D01*
X86454679Y-128500450D01*
X86473150Y-128506838D01*
X86491684Y-128513162D01*
X86510282Y-128519425D01*
X86528941Y-128525624D01*
X86547663Y-128531760D01*
X86566445Y-128537832D01*
X86585288Y-128543840D01*
X86604191Y-128549783D01*
X86623153Y-128555662D01*
X86642173Y-128561476D01*
X86661251Y-128567224D01*
X86680386Y-128572906D01*
X86699577Y-128578521D01*
X86718822Y-128584070D01*
X86738122Y-128589552D01*
X86757474Y-128594966D01*
X86776879Y-128600312D01*
X86796334Y-128605590D01*
X86815840Y-128610799D01*
X86835393Y-128615938D01*
X86854994Y-128621008D01*
X86874642Y-128626008D01*
X86894333Y-128630937D01*
X86914068Y-128635795D01*
X86933844Y-128640581D01*
X86953661Y-128645296D01*
X86973515Y-128649938D01*
X86993406Y-128654507D01*
X87013332Y-128659002D01*
X87033291Y-128663424D01*
X87053280Y-128667771D01*
X87073298Y-128672043D01*
X87093342Y-128676240D01*
X87113410Y-128680361D01*
X87133499Y-128684405D01*
X87153607Y-128688372D01*
X87173731Y-128692261D01*
X87193868Y-128696073D01*
X87214014Y-128699805D01*
X87234167Y-128703459D01*
X87254324Y-128707032D01*
X87274479Y-128710525D01*
X87294630Y-128713937D01*
X87314773Y-128717268D01*
X87334902Y-128720516D01*
X87355014Y-128723681D01*
X87375103Y-128726763D01*
X87395163Y-128729761D01*
X87415191Y-128732674D01*
X87435178Y-128735501D01*
X87455119Y-128738242D01*
X87475007Y-128740897D01*
X87494834Y-128743464D01*
X87514593Y-128745943D01*
X87534274Y-128748333D01*
X87553869Y-128750634D01*
X87573366Y-128752844D01*
X87592756Y-128754963D01*
X87612025Y-128756990D01*
X87631160Y-128758925D01*
X87650148Y-128760766D01*
X87668971Y-128762513D01*
X87687611Y-128764165D01*
X87706050Y-128765721D01*
X87724264Y-128767180D01*
X87742227Y-128768542D01*
X87759911Y-128769805D01*
X87777281Y-128770969D01*
X87794300Y-128772033D01*
X87810920Y-128772996D01*
X87827086Y-128773856D01*
X87842729Y-128774614D01*
X87857766Y-128775267D01*
X87872084Y-128775817D01*
X87885534Y-128776260D01*
X87897899Y-128776599D01*
X87908835Y-128776832D01*
X87917705Y-128776962D01*
X87923000Y-128777000D01*
X87923000Y-57777000D02*
X87912056Y-57777010D01*
X87901131Y-57777040D01*
X87890227Y-57777090D01*
X87879342Y-57777160D01*
X87868477Y-57777249D01*
X87857632Y-57777359D01*
X87846807Y-57777488D01*
X87836002Y-57777637D01*
X87825216Y-57777806D01*
X87814450Y-57777994D01*
X87803704Y-57778202D01*
X87792977Y-57778430D01*
X87782270Y-57778677D01*
X87771583Y-57778943D01*
X87760915Y-57779230D01*
X87750266Y-57779535D01*
X87739637Y-57779860D01*
X87729027Y-57780205D01*
X87718437Y-57780569D01*
X87707866Y-57780952D01*
X87697314Y-57781355D01*
X87686782Y-57781776D01*
X87676268Y-57782217D01*
X87665775Y-57782678D01*
X87655300Y-57783157D01*
X87644844Y-57783655D01*
X87634407Y-57784173D01*
X87623990Y-57784709D01*
X87613591Y-57785265D01*
X87603211Y-57785840D01*
X87592850Y-57786433D01*
X87582509Y-57787046D01*
X87572186Y-57787677D01*
X87561882Y-57788328D01*
X87551596Y-57788997D01*
X87541330Y-57789685D01*
X87531082Y-57790391D01*
X87520853Y-57791117D01*
X87510642Y-57791861D01*
X87500451Y-57792624D01*
X87490277Y-57793405D01*
X87480123Y-57794205D01*
X87469986Y-57795024D01*
X87459869Y-57795861D01*
X87449769Y-57796717D01*
X87439688Y-57797591D01*
X87429626Y-57798484D01*
X87419582Y-57799395D01*
X87409556Y-57800325D01*
X87399548Y-57801273D01*
X87389559Y-57802239D01*
X87379588Y-57803223D01*
X87369635Y-57804226D01*
X87359700Y-57805247D01*
X87349783Y-57806287D01*
X87339885Y-57807344D01*
X87330004Y-57808420D01*
X87320142Y-57809514D01*
X87310296Y-57810626D01*
X87300470Y-57811756D01*
X87290661Y-57812904D01*
X87280871Y-57814070D01*
X87271097Y-57815254D01*
X87261342Y-57816456D01*
X87251604Y-57817676D01*
X87241885Y-57818914D01*
X87232182Y-57820170D01*
X87222498Y-57821443D01*
X87212830Y-57822735D01*
X87203182Y-57824044D01*
X87193549Y-57825371D01*
X87183936Y-57826716D01*
X87174338Y-57828079D01*
X87164760Y-57829459D01*
X87155197Y-57830857D01*
X87145654Y-57832272D01*
X87136126Y-57833706D01*
X87126617Y-57835156D01*
X87117123Y-57836625D01*
X87107649Y-57838111D01*
X87098190Y-57839614D01*
X87088750Y-57841135D01*
X87079326Y-57842674D01*
X87069920Y-57844229D01*
X87060530Y-57845803D01*
X87051158Y-57847393D01*
X87041802Y-57849002D01*
X87032465Y-57850627D01*
X87023142Y-57852270D01*
X87013839Y-57853930D01*
X87004550Y-57855607D01*
X86995281Y-57857301D01*
X86986026Y-57859013D01*
X86976790Y-57860742D01*
X86967568Y-57862489D01*
X86958366Y-57864252D01*
X86949178Y-57866033D01*
X86940009Y-57867830D01*
X86930854Y-57869645D01*
X86921718Y-57871476D01*
X86912597Y-57873325D01*
X86903494Y-57875191D01*
X86894406Y-57877074D01*
X86885336Y-57878974D01*
X86876281Y-57880891D01*
X86867244Y-57882825D01*
X86858221Y-57884775D01*
X86849217Y-57886743D01*
X86840227Y-57888728D01*
X86831255Y-57890729D01*
X86822298Y-57892747D01*
X86813359Y-57894782D01*
X86804434Y-57896834D01*
X86795527Y-57898902D01*
X86786634Y-57900988D01*
X86777760Y-57903090D01*
X86768899Y-57905209D01*
X86760057Y-57907344D01*
X86751229Y-57909497D01*
X86742418Y-57911665D01*
X86733622Y-57913851D01*
X86724844Y-57916053D01*
X86716079Y-57918272D01*
X86707332Y-57920507D01*
X86698599Y-57922759D01*
X86689884Y-57925027D01*
X86681182Y-57927313D01*
X86672499Y-57929614D01*
X86663829Y-57931932D01*
X86655177Y-57934266D01*
X86646538Y-57936618D01*
X86637917Y-57938985D01*
X86629310Y-57941369D01*
X86620720Y-57943769D01*
X86612143Y-57946186D01*
X86603585Y-57948619D01*
X86595039Y-57951069D01*
X86586512Y-57953534D01*
X86577997Y-57956016D01*
X86569500Y-57958515D01*
X86561016Y-57961030D01*
X86552550Y-57963560D01*
X86544097Y-57966108D01*
X86535661Y-57968671D01*
X86527238Y-57971252D01*
X86518833Y-57973847D01*
X86510441Y-57976460D01*
X86502066Y-57979088D01*
X86493704Y-57981733D01*
X86485359Y-57984393D01*
X86468713Y-57989764D01*
X86452127Y-57995198D01*
X86435600Y-58000697D01*
X86419133Y-58006261D01*
X86402726Y-58011889D01*
X86386377Y-58017580D01*
X86370088Y-58023336D01*
X86353857Y-58029156D01*
X86337685Y-58035040D01*
X86321571Y-58040987D01*
X86305515Y-58046998D01*
X86289517Y-58053073D01*
X86273577Y-58059211D01*
X86257695Y-58065412D01*
X86241869Y-58071677D01*
X86226101Y-58078006D01*
X86210389Y-58084397D01*
X86194734Y-58090852D01*
X86179136Y-58097370D01*
X86163594Y-58103951D01*
X86148108Y-58110594D01*
X86132677Y-58117301D01*
X86117303Y-58124071D01*
X86101984Y-58130903D01*
X86086720Y-58137798D01*
X86071511Y-58144756D01*
X86056357Y-58151777D01*
X86041258Y-58158860D01*
X86026214Y-58166006D01*
X86011224Y-58173214D01*
X85996288Y-58180485D01*
X85981406Y-58187819D01*
X85966578Y-58195215D01*
X85951804Y-58202674D01*
X85937083Y-58210194D01*
X85922415Y-58217778D01*
X85907801Y-58225424D01*
X85893239Y-58233132D01*
X85878731Y-58240902D01*
X85864275Y-58248735D01*
X85849871Y-58256631D01*
X85835520Y-58264588D01*
X85821221Y-58272608D01*
X85806975Y-58280691D01*
X85792780Y-58288836D01*
X85778637Y-58297043D01*
X85764545Y-58305312D01*
X85750505Y-58313644D01*
X85736516Y-58322039D01*
X85722578Y-58330496D01*
X85708692Y-58339015D01*
X85694856Y-58347597D01*
X85681071Y-58356241D01*
X85667336Y-58364947D01*
X85653652Y-58373717D01*
X85640019Y-58382549D01*
X85626435Y-58391443D01*
X85612902Y-58400400D01*
X85599419Y-58409420D01*
X85585986Y-58418502D01*
X85572602Y-58427648D01*
X85559268Y-58436856D01*
X85545983Y-58446126D01*
X85532748Y-58455460D01*
X85519563Y-58464857D01*
X85506426Y-58474317D01*
X85493338Y-58483839D01*
X85480300Y-58493425D01*
X85467310Y-58503074D01*
X85454370Y-58512786D01*
X85441478Y-58522562D01*
X85428634Y-58532401D01*
X85415839Y-58542303D01*
X85403093Y-58552269D01*
X85390395Y-58562298D01*
X85377745Y-58572391D01*
X85365143Y-58582547D01*
X85352590Y-58592768D01*
X85340084Y-58603052D01*
X85327627Y-58613400D01*
X85315217Y-58623812D01*
X85302855Y-58634288D01*
X85290541Y-58644829D01*
X85278275Y-58655433D01*
X85266057Y-58666102D01*
X85253886Y-58676835D01*
X85241762Y-58687633D01*
X85229687Y-58698496D01*
X85217658Y-58709423D01*
X85205677Y-58720415D01*
X85193744Y-58731472D01*
X85181858Y-58742593D01*
X85170019Y-58753780D01*
X85158227Y-58765032D01*
X85146483Y-58776350D01*
X85134786Y-58787732D01*
X85123136Y-58799180D01*
X85111533Y-58810694D01*
X85099977Y-58822274D01*
X85088469Y-58833919D01*
X85077007Y-58845630D01*
X85065593Y-58857407D01*
X85054226Y-58869250D01*
X85042906Y-58881159D01*
X85031633Y-58893135D01*
X85020407Y-58905177D01*
X85009229Y-58917286D01*
X84998097Y-58929461D01*
X84987013Y-58941703D01*
X84975975Y-58954012D01*
X84964985Y-58966388D01*
X84954042Y-58978831D01*
X84943147Y-58991342D01*
X84932298Y-59003919D01*
X84921497Y-59016564D01*
X84910743Y-59029277D01*
X84900036Y-59042057D01*
X84889377Y-59054905D01*
X84878765Y-59067820D01*
X84868201Y-59080804D01*
X84857684Y-59093856D01*
X84847214Y-59106976D01*
X84836793Y-59120165D01*
X84826419Y-59133421D01*
X84816092Y-59146747D01*
X84805814Y-59160141D01*
X84795583Y-59173603D01*
X84785400Y-59187135D01*
X84775265Y-59200736D01*
X84765178Y-59214405D01*
X84755140Y-59228144D01*
X84745149Y-59241952D01*
X84735207Y-59255829D01*
X84725314Y-59269776D01*
X84715469Y-59283793D01*
X84705672Y-59297879D01*
X84695924Y-59312035D01*
X84686225Y-59326260D01*
X84676575Y-59340556D01*
X84666974Y-59354921D01*
X84657422Y-59369357D01*
X84647919Y-59383863D01*
X84638465Y-59398439D01*
X84629062Y-59413086D01*
X84619707Y-59427803D01*
X84610403Y-59442590D01*
X84601148Y-59457448D01*
X84591943Y-59472376D01*
X84582789Y-59487376D01*
X84573684Y-59502446D01*
X84564631Y-59517586D01*
X84555627Y-59532798D01*
X84546675Y-59548081D01*
X84537773Y-59563434D01*
X84528923Y-59578858D01*
X84520123Y-59594354D01*
X84511375Y-59609920D01*
X84502679Y-59625558D01*
X84494035Y-59641266D01*
X84485442Y-59657046D01*
X84476901Y-59672897D01*
X84468413Y-59688818D01*
X84459977Y-59704811D01*
X84451594Y-59720875D01*
X84443264Y-59737010D01*
X84434987Y-59753216D01*
X84426763Y-59769493D01*
X84418592Y-59785841D01*
X84410476Y-59802260D01*
X84402413Y-59818750D01*
X84394404Y-59835310D01*
X84386450Y-59851941D01*
X84378550Y-59868643D01*
X84370706Y-59885416D01*
X84362916Y-59902258D01*
X84355181Y-59919172D01*
X84347502Y-59936155D01*
X84339879Y-59953209D01*
X84332312Y-59970332D01*
X84324801Y-59987525D01*
X84317347Y-60004788D01*
X84309950Y-60022120D01*
X84302609Y-60039522D01*
X84295326Y-60056992D01*
X84288101Y-60074532D01*
X84280934Y-60092140D01*
X84273824Y-60109816D01*
X84266774Y-60127561D01*
X84259782Y-60145373D01*
X84252849Y-60163253D01*
X84245975Y-60181199D01*
X84239161Y-60199213D01*
X84232408Y-60217294D01*
X84225714Y-60235440D01*
X84219081Y-60253652D01*
X84212509Y-60271930D01*
X84205999Y-60290272D01*
X84199550Y-60308679D01*
X84193162Y-60327150D01*
X84186838Y-60345684D01*
X84180575Y-60364282D01*
X84174376Y-60382941D01*
X84168240Y-60401663D01*
X84162168Y-60420445D01*
X84156160Y-60439288D01*
X84150217Y-60458191D01*
X84144338Y-60477153D01*
X84138524Y-60496173D01*
X84132776Y-60515251D01*
X84127094Y-60534386D01*
X84121479Y-60553577D01*
X84115930Y-60572822D01*
X84110448Y-60592122D01*
X84105034Y-60611474D01*
X84099688Y-60630879D01*
X84094410Y-60650334D01*
X84089201Y-60669840D01*
X84084062Y-60689393D01*
X84078992Y-60708994D01*
X84073992Y-60728642D01*
X84069063Y-60748333D01*
X84064205Y-60768068D01*
X84059419Y-60787844D01*
X84054704Y-60807661D01*
X84050062Y-60827515D01*
X84045493Y-60847406D01*
X84040998Y-60867332D01*
X84036576Y-60887291D01*
X84032229Y-60907280D01*
X84027957Y-60927298D01*
X84023760Y-60947342D01*
X84019639Y-60967410D01*
X84015595Y-60987499D01*
X84011628Y-61007607D01*
X84007739Y-61027731D01*
X84003927Y-61047868D01*
X84000195Y-61068014D01*
X83996541Y-61088167D01*
X83992968Y-61108324D01*
X83989475Y-61128479D01*
X83986063Y-61148630D01*
X83982732Y-61168773D01*
X83979484Y-61188902D01*
X83976319Y-61209014D01*
X83973237Y-61229103D01*
X83970239Y-61249163D01*
X83967326Y-61269191D01*
X83964499Y-61289178D01*
X83961758Y-61309119D01*
X83959103Y-61329007D01*
X83956536Y-61348834D01*
X83954057Y-61368593D01*
X83951667Y-61388274D01*
X83949366Y-61407869D01*
X83947156Y-61427366D01*
X83945037Y-61446756D01*
X83943010Y-61466025D01*
X83941075Y-61485160D01*
X83939234Y-61504148D01*
X83937487Y-61522971D01*
X83935835Y-61541611D01*
X83934279Y-61560050D01*
X83932820Y-61578264D01*
X83931458Y-61596227D01*
X83930195Y-61613911D01*
X83929031Y-61631281D01*
X83927967Y-61648300D01*
X83927004Y-61664920D01*
X83926144Y-61681086D01*
X83925386Y-61696729D01*
X83924733Y-61711766D01*
X83924183Y-61726084D01*
X83923740Y-61739534D01*
X83923401Y-61751899D01*
X83923168Y-61762835D01*
X83923038Y-61771705D01*
X83923000Y-61777000D01*
D10*
X177423000Y-57777000D02*
X87923000Y-57777000D01*
X87923000Y-128777000D02*
X177423000Y-128777000D01*
D11*
X177423000Y-128777000D02*
X177433944Y-128776990D01*
X177444869Y-128776960D01*
X177455773Y-128776910D01*
X177466658Y-128776840D01*
X177477523Y-128776751D01*
X177488368Y-128776641D01*
X177499193Y-128776512D01*
X177509998Y-128776363D01*
X177520784Y-128776194D01*
X177531550Y-128776006D01*
X177542296Y-128775798D01*
X177553023Y-128775570D01*
X177563730Y-128775323D01*
X177574417Y-128775057D01*
X177585085Y-128774770D01*
X177595734Y-128774465D01*
X177606363Y-128774140D01*
X177616973Y-128773795D01*
X177627563Y-128773431D01*
X177638134Y-128773048D01*
X177648686Y-128772645D01*
X177659218Y-128772224D01*
X177669732Y-128771783D01*
X177680225Y-128771322D01*
X177690700Y-128770843D01*
X177701156Y-128770345D01*
X177711593Y-128769827D01*
X177722010Y-128769291D01*
X177732409Y-128768735D01*
X177742789Y-128768160D01*
X177753150Y-128767567D01*
X177763491Y-128766954D01*
X177773814Y-128766323D01*
X177784118Y-128765672D01*
X177794404Y-128765003D01*
X177804670Y-128764315D01*
X177814918Y-128763609D01*
X177825147Y-128762883D01*
X177835358Y-128762139D01*
X177845549Y-128761376D01*
X177855723Y-128760595D01*
X177865877Y-128759795D01*
X177876014Y-128758976D01*
X177886131Y-128758139D01*
X177896231Y-128757283D01*
X177906312Y-128756409D01*
X177916374Y-128755516D01*
X177926418Y-128754605D01*
X177936444Y-128753675D01*
X177946452Y-128752727D01*
X177956441Y-128751761D01*
X177966412Y-128750777D01*
X177976365Y-128749774D01*
X177986300Y-128748753D01*
X177996217Y-128747713D01*
X178006115Y-128746656D01*
X178015996Y-128745580D01*
X178025858Y-128744486D01*
X178035704Y-128743374D01*
X178045530Y-128742244D01*
X178055339Y-128741096D01*
X178065129Y-128739930D01*
X178074903Y-128738746D01*
X178084658Y-128737544D01*
X178094396Y-128736324D01*
X178104115Y-128735086D01*
X178113818Y-128733830D01*
X178123502Y-128732557D01*
X178133170Y-128731265D01*
X178142818Y-128729956D01*
X178152451Y-128728629D01*
X178162064Y-128727284D01*
X178171662Y-128725921D01*
X178181240Y-128724541D01*
X178190803Y-128723143D01*
X178200346Y-128721728D01*
X178209874Y-128720294D01*
X178219383Y-128718844D01*
X178228877Y-128717375D01*
X178238351Y-128715889D01*
X178247810Y-128714386D01*
X178257250Y-128712865D01*
X178266674Y-128711326D01*
X178276080Y-128709771D01*
X178285470Y-128708197D01*
X178294842Y-128706607D01*
X178304198Y-128704998D01*
X178313535Y-128703373D01*
X178322858Y-128701730D01*
X178332161Y-128700070D01*
X178341450Y-128698393D01*
X178350719Y-128696699D01*
X178359974Y-128694987D01*
X178369210Y-128693258D01*
X178378432Y-128691511D01*
X178387634Y-128689748D01*
X178396822Y-128687967D01*
X178405991Y-128686170D01*
X178415146Y-128684355D01*
X178424282Y-128682524D01*
X178433403Y-128680675D01*
X178442506Y-128678809D01*
X178451594Y-128676926D01*
X178460664Y-128675026D01*
X178469719Y-128673109D01*
X178478756Y-128671175D01*
X178487779Y-128669225D01*
X178496783Y-128667257D01*
X178505773Y-128665272D01*
X178514745Y-128663271D01*
X178523702Y-128661253D01*
X178532641Y-128659218D01*
X178541566Y-128657166D01*
X178550473Y-128655098D01*
X178559366Y-128653012D01*
X178568240Y-128650910D01*
X178577101Y-128648791D01*
X178585943Y-128646656D01*
X178594771Y-128644503D01*
X178603582Y-128642335D01*
X178612378Y-128640149D01*
X178621156Y-128637947D01*
X178629921Y-128635728D01*
X178638668Y-128633493D01*
X178647401Y-128631241D01*
X178656116Y-128628973D01*
X178664818Y-128626687D01*
X178673501Y-128624386D01*
X178682171Y-128622068D01*
X178690823Y-128619734D01*
X178699462Y-128617382D01*
X178708083Y-128615015D01*
X178716690Y-128612631D01*
X178725280Y-128610231D01*
X178733857Y-128607814D01*
X178742415Y-128605381D01*
X178750961Y-128602931D01*
X178759488Y-128600466D01*
X178768003Y-128597984D01*
X178776500Y-128595485D01*
X178784984Y-128592970D01*
X178793450Y-128590440D01*
X178801903Y-128587892D01*
X178810339Y-128585329D01*
X178818762Y-128582748D01*
X178827167Y-128580153D01*
X178835559Y-128577540D01*
X178843934Y-128574912D01*
X178852296Y-128572267D01*
X178860641Y-128569607D01*
X178877287Y-128564236D01*
X178893873Y-128558802D01*
X178910400Y-128553303D01*
X178926867Y-128547739D01*
X178943274Y-128542111D01*
X178959623Y-128536420D01*
X178975912Y-128530664D01*
X178992143Y-128524844D01*
X179008315Y-128518960D01*
X179024429Y-128513013D01*
X179040485Y-128507002D01*
X179056483Y-128500927D01*
X179072423Y-128494789D01*
X179088305Y-128488588D01*
X179104131Y-128482323D01*
X179119899Y-128475994D01*
X179135611Y-128469603D01*
X179151266Y-128463148D01*
X179166864Y-128456630D01*
X179182406Y-128450049D01*
X179197892Y-128443406D01*
X179213323Y-128436699D01*
X179228697Y-128429929D01*
X179244016Y-128423097D01*
X179259280Y-128416202D01*
X179274489Y-128409244D01*
X179289643Y-128402223D01*
X179304742Y-128395140D01*
X179319786Y-128387994D01*
X179334776Y-128380786D01*
X179349712Y-128373515D01*
X179364594Y-128366181D01*
X179379422Y-128358785D01*
X179394196Y-128351326D01*
X179408917Y-128343806D01*
X179423585Y-128336222D01*
X179438199Y-128328576D01*
X179452761Y-128320868D01*
X179467269Y-128313098D01*
X179481725Y-128305265D01*
X179496129Y-128297369D01*
X179510480Y-128289412D01*
X179524779Y-128281392D01*
X179539025Y-128273309D01*
X179553220Y-128265164D01*
X179567363Y-128256957D01*
X179581455Y-128248688D01*
X179595495Y-128240356D01*
X179609484Y-128231961D01*
X179623422Y-128223504D01*
X179637308Y-128214985D01*
X179651144Y-128206403D01*
X179664929Y-128197759D01*
X179678664Y-128189053D01*
X179692348Y-128180283D01*
X179705981Y-128171451D01*
X179719565Y-128162557D01*
X179733098Y-128153600D01*
X179746581Y-128144580D01*
X179760014Y-128135498D01*
X179773398Y-128126352D01*
X179786732Y-128117144D01*
X179800017Y-128107874D01*
X179813252Y-128098540D01*
X179826437Y-128089143D01*
X179839574Y-128079683D01*
X179852662Y-128070161D01*
X179865700Y-128060575D01*
X179878690Y-128050926D01*
X179891630Y-128041214D01*
X179904522Y-128031438D01*
X179917366Y-128021599D01*
X179930161Y-128011697D01*
X179942907Y-128001731D01*
X179955605Y-127991702D01*
X179968255Y-127981609D01*
X179980857Y-127971453D01*
X179993410Y-127961232D01*
X180005916Y-127950948D01*
X180018373Y-127940600D01*
X180030783Y-127930188D01*
X180043145Y-127919712D01*
X180055459Y-127909171D01*
X180067725Y-127898567D01*
X180079943Y-127887898D01*
X180092114Y-127877165D01*
X180104238Y-127866367D01*
X180116313Y-127855504D01*
X180128342Y-127844577D01*
X180140323Y-127833585D01*
X180152256Y-127822528D01*
X180164142Y-127811407D01*
X180175981Y-127800220D01*
X180187773Y-127788968D01*
X180199517Y-127777650D01*
X180211214Y-127766268D01*
X180222864Y-127754820D01*
X180234467Y-127743306D01*
X180246023Y-127731726D01*
X180257531Y-127720081D01*
X180268993Y-127708370D01*
X180280407Y-127696593D01*
X180291774Y-127684750D01*
X180303094Y-127672841D01*
X180314367Y-127660865D01*
X180325593Y-127648823D01*
X180336771Y-127636714D01*
X180347903Y-127624539D01*
X180358987Y-127612297D01*
X180370025Y-127599988D01*
X180381015Y-127587612D01*
X180391958Y-127575169D01*
X180402853Y-127562658D01*
X180413702Y-127550081D01*
X180424503Y-127537436D01*
X180435257Y-127524723D01*
X180445964Y-127511943D01*
X180456623Y-127499095D01*
X180467235Y-127486180D01*
X180477799Y-127473196D01*
X180488316Y-127460144D01*
X180498786Y-127447024D01*
X180509207Y-127433835D01*
X180519581Y-127420579D01*
X180529908Y-127407253D01*
X180540186Y-127393859D01*
X180550417Y-127380397D01*
X180560600Y-127366865D01*
X180570735Y-127353264D01*
X180580822Y-127339595D01*
X180590860Y-127325856D01*
X180600851Y-127312048D01*
X180610793Y-127298171D01*
X180620686Y-127284224D01*
X180630531Y-127270207D01*
X180640328Y-127256121D01*
X180650076Y-127241965D01*
X180659775Y-127227740D01*
X180669425Y-127213444D01*
X180679026Y-127199079D01*
X180688578Y-127184643D01*
X180698081Y-127170137D01*
X180707535Y-127155561D01*
X180716938Y-127140914D01*
X180726293Y-127126197D01*
X180735597Y-127111410D01*
X180744852Y-127096552D01*
X180754057Y-127081624D01*
X180763211Y-127066624D01*
X180772316Y-127051554D01*
X180781369Y-127036414D01*
X180790373Y-127021202D01*
X180799325Y-127005919D01*
X180808227Y-126990566D01*
X180817077Y-126975142D01*
X180825877Y-126959646D01*
X180834625Y-126944080D01*
X180843321Y-126928442D01*
X180851965Y-126912734D01*
X180860558Y-126896954D01*
X180869099Y-126881103D01*
X180877587Y-126865182D01*
X180886023Y-126849189D01*
X180894406Y-126833125D01*
X180902736Y-126816990D01*
X180911013Y-126800784D01*
X180919237Y-126784507D01*
X180927408Y-126768159D01*
X180935524Y-126751740D01*
X180943587Y-126735250D01*
X180951596Y-126718690D01*
X180959550Y-126702059D01*
X180967450Y-126685357D01*
X180975294Y-126668584D01*
X180983084Y-126651742D01*
X180990819Y-126634828D01*
X180998498Y-126617845D01*
X181006121Y-126600791D01*
X181013688Y-126583668D01*
X181021199Y-126566475D01*
X181028653Y-126549212D01*
X181036050Y-126531880D01*
X181043391Y-126514478D01*
X181050674Y-126497008D01*
X181057899Y-126479468D01*
X181065066Y-126461860D01*
X181072176Y-126444184D01*
X181079226Y-126426439D01*
X181086218Y-126408627D01*
X181093151Y-126390747D01*
X181100025Y-126372801D01*
X181106839Y-126354787D01*
X181113592Y-126336706D01*
X181120286Y-126318560D01*
X181126919Y-126300348D01*
X181133491Y-126282070D01*
X181140001Y-126263728D01*
X181146450Y-126245321D01*
X181152838Y-126226850D01*
X181159162Y-126208316D01*
X181165425Y-126189718D01*
X181171624Y-126171059D01*
X181177760Y-126152337D01*
X181183832Y-126133555D01*
X181189840Y-126114712D01*
X181195783Y-126095809D01*
X181201662Y-126076847D01*
X181207476Y-126057827D01*
X181213224Y-126038749D01*
X181218906Y-126019614D01*
X181224521Y-126000423D01*
X181230070Y-125981178D01*
X181235552Y-125961878D01*
X181240966Y-125942526D01*
X181246312Y-125923121D01*
X181251590Y-125903666D01*
X181256799Y-125884160D01*
X181261938Y-125864607D01*
X181267008Y-125845006D01*
X181272008Y-125825358D01*
X181276937Y-125805667D01*
X181281795Y-125785932D01*
X181286581Y-125766156D01*
X181291296Y-125746339D01*
X181295938Y-125726485D01*
X181300507Y-125706594D01*
X181305002Y-125686668D01*
X181309424Y-125666709D01*
X181313771Y-125646720D01*
X181318043Y-125626702D01*
X181322240Y-125606658D01*
X181326361Y-125586590D01*
X181330405Y-125566501D01*
X181334372Y-125546393D01*
X181338261Y-125526269D01*
X181342073Y-125506132D01*
X181345805Y-125485986D01*
X181349459Y-125465833D01*
X181353032Y-125445676D01*
X181356525Y-125425521D01*
X181359937Y-125405370D01*
X181363268Y-125385227D01*
X181366516Y-125365098D01*
X181369681Y-125344986D01*
X181372763Y-125324897D01*
X181375761Y-125304837D01*
X181378674Y-125284809D01*
X181381501Y-125264822D01*
X181384242Y-125244881D01*
X181386897Y-125224993D01*
X181389464Y-125205166D01*
X181391943Y-125185407D01*
X181394333Y-125165726D01*
X181396634Y-125146131D01*
X181398844Y-125126634D01*
X181400963Y-125107244D01*
X181402990Y-125087975D01*
X181404925Y-125068840D01*
X181406766Y-125049852D01*
X181408513Y-125031029D01*
X181410165Y-125012389D01*
X181411721Y-124993950D01*
X181413180Y-124975736D01*
X181414542Y-124957773D01*
X181415805Y-124940089D01*
X181416969Y-124922719D01*
X181418033Y-124905700D01*
X181418996Y-124889080D01*
X181419856Y-124872914D01*
X181420614Y-124857271D01*
X181421267Y-124842234D01*
X181421817Y-124827916D01*
X181422260Y-124814466D01*
X181422599Y-124802101D01*
X181422832Y-124791165D01*
X181422962Y-124782295D01*
X181423000Y-124777000D01*
X181423000Y-61777000D02*
X181422990Y-61766056D01*
X181422960Y-61755131D01*
X181422910Y-61744227D01*
X181422840Y-61733342D01*
X181422751Y-61722477D01*
X181422641Y-61711632D01*
X181422512Y-61700807D01*
X181422363Y-61690002D01*
X181422194Y-61679216D01*
X181422006Y-61668450D01*
X181421798Y-61657704D01*
X181421570Y-61646977D01*
X181421323Y-61636270D01*
X181421057Y-61625583D01*
X181420770Y-61614915D01*
X181420465Y-61604266D01*
X181420140Y-61593637D01*
X181419795Y-61583027D01*
X181419431Y-61572437D01*
X181419048Y-61561866D01*
X181418645Y-61551314D01*
X181418224Y-61540782D01*
X181417783Y-61530268D01*
X181417322Y-61519775D01*
X181416843Y-61509300D01*
X181416345Y-61498844D01*
X181415827Y-61488407D01*
X181415291Y-61477990D01*
X181414735Y-61467591D01*
X181414160Y-61457211D01*
X181413567Y-61446850D01*
X181412954Y-61436509D01*
X181412323Y-61426186D01*
X181411672Y-61415882D01*
X181411003Y-61405596D01*
X181410315Y-61395330D01*
X181409609Y-61385082D01*
X181408883Y-61374853D01*
X181408139Y-61364642D01*
X181407376Y-61354451D01*
X181406595Y-61344277D01*
X181405795Y-61334123D01*
X181404976Y-61323986D01*
X181404139Y-61313869D01*
X181403283Y-61303769D01*
X181402409Y-61293688D01*
X181401516Y-61283626D01*
X181400605Y-61273582D01*
X181399675Y-61263556D01*
X181398727Y-61253548D01*
X181397761Y-61243559D01*
X181396777Y-61233588D01*
X181395774Y-61223635D01*
X181394753Y-61213700D01*
X181393713Y-61203783D01*
X181392656Y-61193885D01*
X181391580Y-61184004D01*
X181390486Y-61174142D01*
X181389374Y-61164296D01*
X181388244Y-61154470D01*
X181387096Y-61144661D01*
X181385930Y-61134871D01*
X181384746Y-61125097D01*
X181383544Y-61115342D01*
X181382324Y-61105604D01*
X181381086Y-61095885D01*
X181379830Y-61086182D01*
X181378557Y-61076498D01*
X181377265Y-61066830D01*
X181375956Y-61057182D01*
X181374629Y-61047549D01*
X181373284Y-61037936D01*
X181371921Y-61028338D01*
X181370541Y-61018760D01*
X181369143Y-61009197D01*
X181367728Y-60999654D01*
X181366294Y-60990126D01*
X181364844Y-60980617D01*
X181363375Y-60971123D01*
X181361889Y-60961649D01*
X181360386Y-60952190D01*
X181358865Y-60942750D01*
X181357326Y-60933326D01*
X181355771Y-60923920D01*
X181354197Y-60914530D01*
X181352607Y-60905158D01*
X181350998Y-60895802D01*
X181349373Y-60886465D01*
X181347730Y-60877142D01*
X181346070Y-60867839D01*
X181344393Y-60858550D01*
X181342699Y-60849281D01*
X181340987Y-60840026D01*
X181339258Y-60830790D01*
X181337511Y-60821568D01*
X181335748Y-60812366D01*
X181333967Y-60803178D01*
X181332170Y-60794009D01*
X181330355Y-60784854D01*
X181328524Y-60775718D01*
X181326675Y-60766597D01*
X181324809Y-60757494D01*
X181322926Y-60748406D01*
X181321026Y-60739336D01*
X181319109Y-60730281D01*
X181317175Y-60721244D01*
X181315225Y-60712221D01*
X181313257Y-60703217D01*
X181311272Y-60694227D01*
X181309271Y-60685255D01*
X181307253Y-60676298D01*
X181305218Y-60667359D01*
X181303166Y-60658434D01*
X181301098Y-60649527D01*
X181299012Y-60640634D01*
X181296910Y-60631760D01*
X181294791Y-60622899D01*
X181292656Y-60614057D01*
X181290503Y-60605229D01*
X181288335Y-60596418D01*
X181286149Y-60587622D01*
X181283947Y-60578844D01*
X181281728Y-60570079D01*
X181279493Y-60561332D01*
X181277241Y-60552599D01*
X181274973Y-60543884D01*
X181272687Y-60535182D01*
X181270386Y-60526499D01*
X181268068Y-60517829D01*
X181265734Y-60509177D01*
X181263382Y-60500538D01*
X181261015Y-60491917D01*
X181258631Y-60483310D01*
X181256231Y-60474720D01*
X181253814Y-60466143D01*
X181251381Y-60457585D01*
X181248931Y-60449039D01*
X181246466Y-60440512D01*
X181243984Y-60431997D01*
X181241485Y-60423500D01*
X181238970Y-60415016D01*
X181236440Y-60406550D01*
X181233892Y-60398097D01*
X181231329Y-60389661D01*
X181228748Y-60381238D01*
X181226153Y-60372833D01*
X181223540Y-60364441D01*
X181220912Y-60356066D01*
X181218267Y-60347704D01*
X181215607Y-60339359D01*
X181210236Y-60322713D01*
X181204802Y-60306127D01*
X181199303Y-60289600D01*
X181193739Y-60273133D01*
X181188111Y-60256726D01*
X181182420Y-60240377D01*
X181176664Y-60224088D01*
X181170844Y-60207857D01*
X181164960Y-60191685D01*
X181159013Y-60175571D01*
X181153002Y-60159515D01*
X181146927Y-60143517D01*
X181140789Y-60127577D01*
X181134588Y-60111695D01*
X181128323Y-60095869D01*
X181121994Y-60080101D01*
X181115603Y-60064389D01*
X181109148Y-60048734D01*
X181102630Y-60033136D01*
X181096049Y-60017594D01*
X181089406Y-60002108D01*
X181082699Y-59986677D01*
X181075929Y-59971303D01*
X181069097Y-59955984D01*
X181062202Y-59940720D01*
X181055244Y-59925511D01*
X181048223Y-59910357D01*
X181041140Y-59895258D01*
X181033994Y-59880214D01*
X181026786Y-59865224D01*
X181019515Y-59850288D01*
X181012181Y-59835406D01*
X181004785Y-59820578D01*
X180997326Y-59805804D01*
X180989806Y-59791083D01*
X180982222Y-59776415D01*
X180974576Y-59761801D01*
X180966868Y-59747239D01*
X180959098Y-59732731D01*
X180951265Y-59718275D01*
X180943369Y-59703871D01*
X180935412Y-59689520D01*
X180927392Y-59675221D01*
X180919309Y-59660975D01*
X180911164Y-59646780D01*
X180902957Y-59632637D01*
X180894688Y-59618545D01*
X180886356Y-59604505D01*
X180877961Y-59590516D01*
X180869504Y-59576578D01*
X180860985Y-59562692D01*
X180852403Y-59548856D01*
X180843759Y-59535071D01*
X180835053Y-59521336D01*
X180826283Y-59507652D01*
X180817451Y-59494019D01*
X180808557Y-59480435D01*
X180799600Y-59466902D01*
X180790580Y-59453419D01*
X180781498Y-59439986D01*
X180772352Y-59426602D01*
X180763144Y-59413268D01*
X180753874Y-59399983D01*
X180744540Y-59386748D01*
X180735143Y-59373563D01*
X180725683Y-59360426D01*
X180716161Y-59347338D01*
X180706575Y-59334300D01*
X180696926Y-59321310D01*
X180687214Y-59308370D01*
X180677438Y-59295478D01*
X180667599Y-59282634D01*
X180657697Y-59269839D01*
X180647731Y-59257093D01*
X180637702Y-59244395D01*
X180627609Y-59231745D01*
X180617453Y-59219143D01*
X180607232Y-59206590D01*
X180596948Y-59194084D01*
X180586600Y-59181627D01*
X180576188Y-59169217D01*
X180565712Y-59156855D01*
X180555171Y-59144541D01*
X180544567Y-59132275D01*
X180533898Y-59120057D01*
X180523165Y-59107886D01*
X180512367Y-59095762D01*
X180501504Y-59083687D01*
X180490577Y-59071658D01*
X180479585Y-59059677D01*
X180468528Y-59047744D01*
X180457407Y-59035858D01*
X180446220Y-59024019D01*
X180434968Y-59012227D01*
X180423650Y-59000483D01*
X180412268Y-58988786D01*
X180400820Y-58977136D01*
X180389306Y-58965533D01*
X180377726Y-58953977D01*
X180366081Y-58942469D01*
X180354370Y-58931007D01*
X180342593Y-58919593D01*
X180330750Y-58908226D01*
X180318841Y-58896906D01*
X180306865Y-58885633D01*
X180294823Y-58874407D01*
X180282714Y-58863229D01*
X180270539Y-58852097D01*
X180258297Y-58841013D01*
X180245988Y-58829975D01*
X180233612Y-58818985D01*
X180221169Y-58808042D01*
X180208658Y-58797147D01*
X180196081Y-58786298D01*
X180183436Y-58775497D01*
X180170723Y-58764743D01*
X180157943Y-58754036D01*
X180145095Y-58743377D01*
X180132180Y-58732765D01*
X180119196Y-58722201D01*
X180106144Y-58711684D01*
X180093024Y-58701214D01*
X180079835Y-58690793D01*
X180066579Y-58680419D01*
X180053253Y-58670092D01*
X180039859Y-58659814D01*
X180026397Y-58649583D01*
X180012865Y-58639400D01*
X179999264Y-58629265D01*
X179985595Y-58619178D01*
X179971856Y-58609140D01*
X179958048Y-58599149D01*
X179944171Y-58589207D01*
X179930224Y-58579314D01*
X179916207Y-58569469D01*
X179902121Y-58559672D01*
X179887965Y-58549924D01*
X179873740Y-58540225D01*
X179859444Y-58530575D01*
X179845079Y-58520974D01*
X179830643Y-58511422D01*
X179816137Y-58501919D01*
X179801561Y-58492465D01*
X179786914Y-58483062D01*
X179772197Y-58473707D01*
X179757410Y-58464403D01*
X179742552Y-58455148D01*
X179727624Y-58445943D01*
X179712624Y-58436789D01*
X179697554Y-58427684D01*
X179682414Y-58418631D01*
X179667202Y-58409627D01*
X179651919Y-58400675D01*
X179636566Y-58391773D01*
X179621142Y-58382923D01*
X179605646Y-58374123D01*
X179590080Y-58365375D01*
X179574442Y-58356679D01*
X179558734Y-58348035D01*
X179542954Y-58339442D01*
X179527103Y-58330901D01*
X179511182Y-58322413D01*
X179495189Y-58313977D01*
X179479125Y-58305594D01*
X179462990Y-58297264D01*
X179446784Y-58288987D01*
X179430507Y-58280763D01*
X179414159Y-58272592D01*
X179397740Y-58264476D01*
X179381250Y-58256413D01*
X179364690Y-58248404D01*
X179348059Y-58240450D01*
X179331357Y-58232550D01*
X179314584Y-58224706D01*
X179297742Y-58216916D01*
X179280828Y-58209181D01*
X179263845Y-58201502D01*
X179246791Y-58193879D01*
X179229668Y-58186312D01*
X179212475Y-58178801D01*
X179195212Y-58171347D01*
X179177880Y-58163950D01*
X179160478Y-58156609D01*
X179143008Y-58149326D01*
X179125468Y-58142101D01*
X179107860Y-58134934D01*
X179090184Y-58127824D01*
X179072439Y-58120774D01*
X179054627Y-58113782D01*
X179036747Y-58106849D01*
X179018801Y-58099975D01*
X179000787Y-58093161D01*
X178982706Y-58086408D01*
X178964560Y-58079714D01*
X178946348Y-58073081D01*
X178928070Y-58066509D01*
X178909728Y-58059999D01*
X178891321Y-58053550D01*
X178872850Y-58047162D01*
X178854316Y-58040838D01*
X178835718Y-58034575D01*
X178817059Y-58028376D01*
X178798337Y-58022240D01*
X178779555Y-58016168D01*
X178760712Y-58010160D01*
X178741809Y-58004217D01*
X178722847Y-57998338D01*
X178703827Y-57992524D01*
X178684749Y-57986776D01*
X178665614Y-57981094D01*
X178646423Y-57975479D01*
X178627178Y-57969930D01*
X178607878Y-57964448D01*
X178588526Y-57959034D01*
X178569121Y-57953688D01*
X178549666Y-57948410D01*
X178530160Y-57943201D01*
X178510607Y-57938062D01*
X178491006Y-57932992D01*
X178471358Y-57927992D01*
X178451667Y-57923063D01*
X178431932Y-57918205D01*
X178412156Y-57913419D01*
X178392339Y-57908704D01*
X178372485Y-57904062D01*
X178352594Y-57899493D01*
X178332668Y-57894998D01*
X178312709Y-57890576D01*
X178292720Y-57886229D01*
X178272702Y-57881957D01*
X178252658Y-57877760D01*
X178232590Y-57873639D01*
X178212501Y-57869595D01*
X178192393Y-57865628D01*
X178172269Y-57861739D01*
X178152132Y-57857927D01*
X178131986Y-57854195D01*
X178111833Y-57850541D01*
X178091676Y-57846968D01*
X178071521Y-57843475D01*
X178051370Y-57840063D01*
X178031227Y-57836732D01*
X178011098Y-57833484D01*
X177990986Y-57830319D01*
X177970897Y-57827237D01*
X177950837Y-57824239D01*
X177930809Y-57821326D01*
X177910822Y-57818499D01*
X177890881Y-57815758D01*
X177870993Y-57813103D01*
X177851166Y-57810536D01*
X177831407Y-57808057D01*
X177811726Y-57805667D01*
X177792131Y-57803366D01*
X177772634Y-57801156D01*
X177753244Y-57799037D01*
X177733975Y-57797010D01*
X177714840Y-57795075D01*
X177695852Y-57793234D01*
X177677029Y-57791487D01*
X177658389Y-57789835D01*
X177639950Y-57788279D01*
X177621736Y-57786820D01*
X177603773Y-57785458D01*
X177586089Y-57784195D01*
X177568719Y-57783031D01*
X177551700Y-57781967D01*
X177535080Y-57781004D01*
X177518914Y-57780144D01*
X177503271Y-57779386D01*
X177488234Y-57778733D01*
X177473916Y-57778183D01*
X177460466Y-57777740D01*
X177448101Y-57777401D01*
X177437165Y-57777168D01*
X177428295Y-57777038D01*
X177423000Y-57777000D01*
M02*
