M48
; DRILL file {KiCad 9.0.0} date 2025-06-24T12:34:59+1000
; FORMAT={-:-/ absolute / inch / decimal}
; #@! TF.CreationDate,2025-06-24T12:34:59+10:00
; #@! TF.GenerationSoftware,Kicad,Pcbnew,9.0.0
; #@! TF.FileFunction,NonPlated,1,2,NPTH
FMAT,2
INCH
; #@! TA.AperFunction,NonPlated,NPTH,ComponentDrill
T1C0.0669
; #@! TA.AperFunction,NonPlated,NPTH,ComponentDrill
T2C0.0866
; #@! TA.AperFunction,NonPlated,NPTH,ComponentDrill
T3C0.1181
; #@! TA.AperFunction,NonPlated,NPTH,ComponentDrill
T4C0.1575
%
G90
G05
T1
X3.905Y-4.4424
X3.9056Y-2.8991
X3.906Y-3.67
X4.305Y-4.4424
X4.3056Y-2.8991
X4.306Y-3.67
X4.6777Y-4.4432
X4.6789Y-2.8991
X4.6789Y-3.6704
X5.0777Y-4.4432
X5.0789Y-2.8991
X5.0789Y-3.6704
X5.4505Y-3.6704
X5.4509Y-2.8967
X5.4509Y-4.4436
X5.8505Y-3.6704
X5.8509Y-2.8967
X5.8509Y-4.4436
T2
X3.4615Y-2.4322
X3.4615Y-4.9125
X6.9852Y-2.4322
X6.9852Y-4.9125
T3
X3.9558Y-4.3424
X3.9564Y-2.7991
X3.9568Y-3.57
X4.2058Y-4.2424
X4.2064Y-2.6991
X4.2068Y-3.47
X4.7285Y-4.3432
X4.7296Y-2.7991
X4.7296Y-3.5704
X4.9785Y-4.2432
X4.9796Y-2.6991
X4.9796Y-3.4704
X5.5013Y-3.5704
X5.5017Y-2.7967
X5.5017Y-4.3436
X5.7513Y-3.4704
X5.7517Y-2.6967
X5.7517Y-4.2436
T4
X4.1058Y-4.4424
X4.1064Y-2.8991
X4.1068Y-3.67
X4.8785Y-4.4432
X4.8796Y-2.8991
X4.8796Y-3.6704
X5.6513Y-3.6704
X5.6517Y-2.8967
X5.6517Y-4.4436
M30
